<?xml version="1.0" encoding="UTF-8"?>
<svg height="304.4" version="1.1" viewBox="0 0 502.207 304.4" width="502.207" xmlns="http://www.w3.org/2000/svg">
  <line stroke="#000000" stroke-width="1" x1="16" x2="16" y1="130.75" y2="244"/>
  <line stroke="#000000" stroke-width="1" x1="16" x2="136" y1="130.75" y2="130.75"/>
  <line stroke="#000000" stroke-width="1" x1="16" x2="136" y1="244" y2="244"/>
  <line stroke="#000000" stroke-width="1" x1="136" x2="136" y1="89.5" y2="172"/>
  <line stroke="#000000" stroke-width="1" x1="136" x2="184" y1="89.5" y2="89.5"/>
  <line stroke="#000000" stroke-width="1" x1="136" x2="256" y1="172" y2="172"/>
  <line stroke="#000000" stroke-width="1" x1="184" x2="184" y1="67" y2="112"/>
  <line stroke="#000000" stroke-width="1" x1="184" x2="196" y1="67" y2="67"/>
  <line stroke="#000000" stroke-width="1" x1="184" x2="304" y1="112" y2="112"/>
  <line stroke="#000000" stroke-width="1" x1="196" x2="196" y1="46" y2="88"/>
  <line stroke="#000000" stroke-width="1" x1="196" x2="214" y1="46" y2="46"/>
  <line stroke="#000000" stroke-width="1" x1="196" x2="298" y1="88" y2="88"/>
  <line stroke="#000000" stroke-width="1" x1="214" x2="214" y1="28" y2="64"/>
  <line stroke="#000000" stroke-width="1" x1="214" x2="238" y1="28" y2="28"/>
  <line stroke="#000000" stroke-width="1" x1="214" x2="298" y1="64" y2="64"/>
  <line stroke="#000000" stroke-width="1" x1="238" x2="238" y1="16" y2="40"/>
  <line stroke="#000000" stroke-width="1" x1="238" x2="298" y1="16" y2="16"/>
  <line stroke="#000000" stroke-width="1" x1="238" x2="298" y1="40" y2="40"/>
  <line stroke="#000000" stroke-width="1" x1="256" x2="256" y1="148" y2="196"/>
  <line stroke="#000000" stroke-width="1" x1="256" x2="280" y1="148" y2="148"/>
  <line stroke="#000000" stroke-width="1" x1="256" x2="292" y1="196" y2="196"/>
  <line stroke="#000000" stroke-width="1" x1="280" x2="280" y1="136" y2="160"/>
  <line stroke="#000000" stroke-width="1" x1="280" x2="352" y1="136" y2="136"/>
  <line stroke="#000000" stroke-width="1" x1="280" x2="352" y1="160" y2="160"/>
  <line stroke="#000000" stroke-width="1" x1="292" x2="292" y1="184" y2="208"/>
  <line stroke="#000000" stroke-width="1" x1="292" x2="352" y1="184" y2="184"/>
  <line stroke="#000000" stroke-width="1" x1="292" x2="352" y1="208" y2="208"/>
  <line stroke="#000000" stroke-width="1" x1="136" x2="136" y1="232" y2="256"/>
  <line stroke="#000000" stroke-width="1" x1="136" x2="292" y1="232" y2="232"/>
  <line stroke="#000000" stroke-width="1" x1="136" x2="292" y1="256" y2="256"/>
  <text fill="#000000" font-family="DejaVu Sans, sans-serif" font-size="12" text-anchor="start" x="302" y="20.2">Homo_sapiens</text>
  <text fill="#000000" font-family="DejaVu Sans, sans-serif" font-size="12" text-anchor="start" x="302" y="44.2">Pan_troglodytes</text>
  <text fill="#000000" font-family="DejaVu Sans, sans-serif" font-size="12" text-anchor="start" x="302" y="68.2">Gorilla_gorilla</text>
  <text fill="#000000" font-family="DejaVu Sans, sans-serif" font-size="12" text-anchor="start" x="302" y="92.2">Pongo_abelii</text>
  <text fill="#000000" font-family="DejaVu Sans, sans-serif" font-size="12" text-anchor="start" x="308" y="116.2">Hylobates_lar</text>
  <text fill="#000000" font-family="DejaVu Sans, sans-serif" font-size="12" text-anchor="start" x="356" y="140.2">Macaca_mulatta</text>
  <text fill="#000000" font-family="DejaVu Sans, sans-serif" font-size="12" text-anchor="start" x="356" y="164.2">Papio_anubis</text>
  <text fill="#000000" font-family="DejaVu Sans, sans-serif" font-size="12" text-anchor="start" x="356" y="188.2">Cercopithecus_mitis</text>
  <text fill="#000000" font-family="DejaVu Sans, sans-serif" font-size="12" text-anchor="start" x="356" y="212.2">Chlorocebus_sabaeus</text>
  <text fill="#000000" font-family="DejaVu Sans, sans-serif" font-size="12" text-anchor="start" x="296" y="236.2">Callithrix_jacchus</text>
  <text fill="#000000" font-family="DejaVu Sans, sans-serif" font-size="12" text-anchor="start" x="296" y="260.2">Saimiri_sciureus</text>
  <line stroke="#000000" stroke-width="1" x1="16" x2="76" y1="265.6" y2="265.6"/>
  <line stroke="#000000" stroke-width="1" x1="16" x2="16" y1="263.5" y2="267.7"/>
  <line stroke="#000000" stroke-width="1" x1="76" x2="76" y1="263.5" y2="267.7"/>
  <text fill="#000000" font-family="DejaVu Sans, sans-serif" font-size="12" text-anchor="middle" x="46" y="280">0.05 substitutions/site</text>
</svg>
